<svg width="112" height="124" viewBox="0 0 112 124" xmlns="http://www.w3.org/2000/svg"><title>de 16 à 25 ans</title><desc>Created with Sketch.</desc><defs><linearGradient x1="18.412%" y1="0%" x2="87.765%" y2="108.908%" id="a"><stop stop-color="#8DC6F5" offset="0%"/><stop stop-color="#4BA5EF" offset="100%"/></linearGradient></defs><g stroke="url(#a)" stroke-width="3" fill="none"><path d="M37.676 75.514v7.568m36.757 0v-7.568"/><path d="M31.719 88.486l-23.308 5.403c-3.756.871-6.411 4.172-6.411 7.974v16.04c0 2.262 1.862 4.096 4.158 4.096h99.792c2.297 0 4.159-1.835 4.159-4.096v-16.04c0-3.802-2.655-7.104-6.411-7.975l-23.301-5.401"/><path d="M30.108 62.541l.123 2.627c.17 3.634 2.001 7.004 4.99 9.187l8.619 6.293c2.165 1.58 4.798 2.435 7.504 2.435h8.339c2.706 0 5.34-.854 7.504-2.435l8.62-6.293c2.989-2.183 4.821-5.552 4.99-9.187l.122-2.616"/><path d="M16.991 108.892l-13.232-11.756c-1.109 1.389-1.759 3.136-1.759 5.006v15.819c0 2.231 1.829 4.039 4.084 4.039h14.294v-5.596c-.001-2.866-1.232-5.597-3.387-7.513"/><path d="M107.831 96.533c1.216 1.275 2.277 2.794 2.277 4.745v16.507c0 2.327-1.829 4.215-4.084 4.215h-14.294v-5.839c0-2.991 1.232-5.841 3.387-7.839l12.714-11.789z"/><path d="M61.459 122h-10.811l2.246-16.216h6.73z"/><path d="M52.42 101.645l-1.771 1.082c0 1.312 1.082 3.057 2.418 3.057h5.975c1.336 0 2.418-1.745 2.418-3.057l-1.693-1.082-3.713-2.348-3.634 2.348z"/><path d="M37.114 82.525l18.94 16.838s-5.304 2.645-11.849 7.976c-1.351 1.1-3.393.654-4.117-.92l-8.898-19.337 2.815-4.171c.7-1.039 2.171-1.221 3.11-.387"/><path d="M74.994 82.525l-18.939 16.838s5.304 2.645 11.849 7.976c1.351 1.1 3.392.654 4.117-.92l8.899-19.337-2.815-4.171c-.701-1.039-2.171-1.221-3.111-.387"/><path d="M85.331 47.405c.447-2.847 4.199-9.068 4.199-9.068s1.407-25.638-12.935-27.689m-3.243 16.216c6.988 3.823 8.102 15.433 8.28 19.037.036.737-.056.883.369 1.503"/><path d="M80.919 46.768c.489-.158 1.277-.444 1.829-.444 3.029 0 5.25 2.567 4.516 5.217l-2.536 9.153c-.3 1.085-1.38 1.846-2.619 1.846-.346 0-.678-.059-.984-.167"/><path d="M30.9 45.881c-.122-3.424.293-11.37 6.333-14.924 7.251-4.265 13.595-2.068 20.069-2.068 17.35 0 22.205-6.527 21.364-14.476-.436-4.112-6.735-12.68-22.788-12.407-6.478.109-18.644 2.068-24.945 5.342l3.064 2.09c-13.854 10.21-11.265 27.724-11.265 27.724 2.156 2.151 3.19 5.982 3.686 9.163"/><path d="M31.189 46.7c-.577-.241-1.219-.376-1.9-.376-2.983 0-5.171 2.567-4.448 5.217l2.498 9.153c.296 1.085 1.36 1.846 2.581 1.846.342 0 .714-.201 1.016-.309"/><path d="M67.826 117.676c-1.128 0-2.042.968-2.042 2.163v2.161h18.378v-2.161c0-1.195-.915-2.163-2.042-2.163h-14.294z"/></g></svg>