<?xml version="1.0" encoding="UTF-8"?>
<svg width="184px" height="236px" viewBox="0 0 184 236" version="1.1" xmlns="http://www.w3.org/2000/svg" xmlns:xlink="http://www.w3.org/1999/xlink">
    <!-- Generator: Sketch 41 (35326) - http://www.bohemiancoding.com/sketch -->
    <title>armchair</title>
    <desc>Created with Sketch.</desc>
    <defs>
        <linearGradient x1="39.0413027%" y1="-160.161308%" x2="78.97781%" y2="190.019256%" id="linearGradient-1">
            <stop stop-color="#8DC6F5" offset="0%"></stop>
            <stop stop-color="#4BA5EF" offset="100%"></stop>
        </linearGradient>
    </defs>
    <g id="Page-1" stroke="none" stroke-width="1" fill="none" fill-rule="evenodd">
        <g id="Prise-en-charge" transform="translate(-118.000000, -507.000000)" stroke="url(#linearGradient-1)">
            <g id="Group-3" transform="translate(120.000000, 511.000000)">
                <g id="armchair">
                    <path d="M95,85.3753058 L25.6649806,85 C25.6649806,85 16.7523586,85.613955 15.0447744,94.2339902 C13.3371903,102.854025 61.0393408,101.974756 61.0393408,101.974756 C61.0393408,101.974756 72.7683439,101.856765 76.0806531,100.680851" id="Path-10" stroke-width="8"></path>
                    <polyline id="Path-8" stroke-width="6" points="31 175 93.6610449 133 148 175 85.6511421 138.3284"></polyline>
                    <polygon id="Path-9" stroke-width="6" points="96.3298086 167.159203 58 139.79274 81.2861076 179 126 131"></polygon>
                    <g id="feet" transform="translate(1.000000, 111.000000)" stroke-width="6">
                        <path d="M90.7310647,82.324829 C92.0057026,35.484763 95.8283059,2.26502828 95.8283059,2.26502828 L100.989653,2.26502828 C100.989653,2.26502828 102.912062,50.8690369 96.2523269,108.991556 C96.1381293,109.98821 96.0191647,110.994231 96.0191647,110.994231 C95.9545176,111.544023 95.4643275,111.984186 94.904678,111.977115 L91.3204351,111.931827 C90.7695682,111.924867 90.3251206,111.466848 90.3278036,110.922291 C90.3278036,110.922291 90.3765809,99.8595947 90.4731668,94.0662148" id="Path" transform="translate(95.785097, 57.121114) rotate(-7.000000) translate(-95.785097, -57.121114) "></path>
                        <path d="M22.4817981,88.1506185 C23.618374,37.2716633 27.7768024,2.19161465 27.7768024,2.19161465 L32.9381491,2.19161465 C32.9381491,2.19161465 34.8265115,51.0991612 27.9241925,112.201081 C27.8755012,112.632115 24.1546633,113.124228 24.1546633,113.124228 C23.0738589,113.289131 22.2010448,112.529354 22.2055757,111.425279 C22.2055757,111.425279 22.2318721,103.483046 22.2948781,98.6846797" id="Path" transform="translate(27.689946, 57.669164) rotate(24.000000) translate(-27.689946, -57.669164) "></path>
                        <path d="M142.089401,89.0575147 C143.145375,36.1367808 147.151155,-5.32396793 147.151155,-5.32396793 L152.132746,-2.61432457 C152.132746,-2.61432457 154.347047,48.8408438 148.052419,108.153754 C147.849222,110.068429 147.042042,115.786648 147.042042,115.786648 C146.965717,116.331494 146.522989,116.553292 146.044282,116.276911 L142.696322,114.343965 C142.221599,114.069884 141.83839,113.406238 141.840573,112.84708 C141.840573,112.84708 141.874061,103.160454 141.942413,97.9402425" id="Path" transform="translate(147.175492, 55.535992) rotate(-30.000000) translate(-147.175492, -55.535992) "></path>
                        <path d="M75.1033712,90.2607086 C76.4677812,40.9111133 80.9609601,2.59687992 80.9609601,2.59687992 L86.1223068,2.59687992 C86.1223068,2.59687992 87.3301269,56.4881639 80.6354037,114.819652 C80.5238932,115.79125 80.4114382,116.74175 80.4114382,116.74175 C80.3467184,117.291915 79.8564694,117.73238 79.2968199,117.725309 L75.712577,117.680021 C75.1617101,117.673061 74.7173625,117.216758 74.7201712,116.675614 C74.7201712,116.675614 74.7676186,106.408048 74.8629479,100.920565" id="Path" fill="#FFFFFF"></path>
                    </g>
                    <path d="M9.4892583,112.294369 C0.132729428,109.204386 1.85501508,102.773404 2.68924657,96.8125508 C7.45658128,77.544845 14.3648761,54.0086796 14.3648761,54.0086796 C14.3648761,54.0086796 17.858216,40.0687596 36.0698192,37.8108507 C54.2814224,35.5529418 67.51416,35.4683162 67.51416,35.4683162 C67.51416,35.4683162 93.9864795,35.330417 103.518528,29.1828515 C113.050577,23.035286 124.859579,14.2172978 124.859579,14.2172978 C124.859579,14.2172978 139.918962,-1.2344392 155.884089,0.07925962 C171.849216,1.39295844 172.579389,10.1026669 172.579389,10.1026669 C172.579389,10.1026669 177.758544,24.7706305 176.905006,41.4084253 C176.905006,41.4084253 178.24448,45.6555825 140.60265,46.9859086 L126.110282,47.7779313 C126.110282,47.7779313 111.20849,46.2312896 104.850469,77.4745418 C104.850469,77.4745418 97.4231881,115.740911 63.2975667,116.828382 C29.1719452,117.915854 14.273038,113.527804 9.4892583,112.294369 Z M82.5951742,111.458261 L129.17603,112.879841 C129.17603,112.879841 151.136467,109.724616 156.407391,84.9175766 C156.485392,84.6035097 158.278067,65.3157756 158.278067,65.3157756 C158.278067,65.3157756 160.357523,46.6892584 162.588965,45.4923395" id="Path-7" stroke-width="8"></path>
                </g>
            </g>
        </g>
    </g>
</svg>