<svg width="86" height="94" viewBox="0 0 86 94" xmlns="http://www.w3.org/2000/svg"><title>a partir de 3 ans</title><desc>Created with Sketch.</desc><defs><linearGradient x1="81.076%" y1="78.716%" x2="-53.041%" y2="-265.463%" id="a"><stop stop-color="#4BA5EF" offset="0%"/><stop stop-color="#fff" offset="100%"/></linearGradient></defs><g stroke="url(#a)" stroke-width="3" fill="none"><path d="M21.647 34.11c-2.514 0-4.551 1.333-4.551 3.849 0 2.517 2.038 4.557 4.551 4.557v1.519c0 3.679 2.209 6.998 5.601 8.413l6.535 2.726v4.899c0 1.308-.836 2.468-2.075 2.882l-10.318 3.801c-2.641.973-4.528 3.33-4.9 6.124l-1.742 13.083c-.364 2.732 1.759 5.159 4.511 5.159h47.252c2.753 0 4.875-2.427 4.511-5.159l-1.742-13.083c-.372-2.793-2.258-5.151-4.9-6.124l-10.318-3.801c-1.239-.414-2.075-1.574-2.075-2.882v-4.899l6.535-2.726c3.392-1.415 5.601-4.733 5.601-8.413v-1.519c2.514 0 4.551-2.04 4.551-4.557 0-2.517-2.038-3.849-4.551-3.849M62.546 5.215s1.808-3.215 9.488-3.215 12.137 5.839 12.137 13.708c0 7.99-8.85 29.448-4.551 42.648 0 0-9.66-3.341-14.146-16.277"/><path d="M65.599 10.53c.557-.613.525-1.58-.072-2.158l-3.943-3.824c-.597-.579-1.533-.551-2.09.062-.557.613-.525 1.58.072 2.158l3.943 3.824c.597.579 1.532.551 2.09-.062zM23.227 5.138c-2.117-1.553-5.256-3.138-9.25-3.138-7.831 0-12.375 5.839-12.375 13.708 0 7.99 9.023 29.448 4.641 42.648 0 0 9.802-2.547 14.304-15.854"/><path d="M19.133 10.785c-.609-.563-.66-1.528-.116-2.157l3.596-4.153c.544-.629 1.479-.682 2.087-.12.609.563.66 1.528.116 2.157l-3.596 4.153c-.544.629-1.479.682-2.087.12zM21.242 34.11c-2.523 0-4.568 1.373-4.568 3.885 0 2.512 2.045 4.548 4.568 4.548v1.516c0 3.672 2.218 6.983 5.622 8.396l9.838 4.081c1.856.77 3.846 1.166 5.856 1.166s4.001-.396 5.856-1.166l9.839-4.081c3.404-1.412 5.622-4.724 5.622-8.395v-1.516c2.523 0 4.568-2.036 4.568-4.548s-2.045-3.885-4.568-3.885"/><path d="M50.168 3.311c-4.946 0-7.609 1.515-7.609 1.515s-2.663-1.515-7.609-1.515-23.715 9.482-16.74 31.455c0 0 24.349-4.304 24.349-14.785 0 10.481 24.349 14.785 24.349 14.785 6.975-21.973-11.794-31.455-16.74-31.455zM24.671 75.394l-3.41-8.407 5.792-2.078 3.383 8.27M60.683 74.739l3.174-7.774-5.841-2.056-3.334 8.048"/><path d="M58.177 73.429h-30.581c-1.689 0-3.058 1.369-3.058 3.058v15.291h36.697v-15.291c0-1.689-1.369-3.058-3.058-3.058z"/></g></svg>