<svg width="72" height="104" viewBox="0 0 72 104" xmlns="http://www.w3.org/2000/svg"><title>de 6 à 11 ans</title><desc>Created with Sketch.</desc><defs><linearGradient x1="18.412%" y1="0%" x2="87.765%" y2="108.908%" id="a"><stop stop-color="#8DC6F5" offset="0%"/><stop stop-color="#4BA5EF" offset="100%"/></linearGradient></defs><g stroke="url(#a)" stroke-width="3" fill="none"><path d="M68.034 77.648c-.25-1.976-1.626-3.636-3.54-4.266l-10.622-3.498c-.901-.296-2.21.306-2.608 1.008l-2.196-.865c-1.425-.47-2.386-1.788-2.386-3.272v-5.56l7.518-3.095c3.902-1.606 6.444-5.373 6.444-9.549v-1.724c2.892 0 5.236-2.316 5.236-5.173 0-1.363-.535-2.602-1.407-3.526.88-4.923 3.059-18.809 1.407-27.508-.982-5.173-3.49-8.621-3.49-8.621s-13.09.431-22.688 3.448l-1.746-3.448s-19.307 0-24.432 8.62c-.002.002-8.728-.07-8.728 10.346 0 3.812 2.153 13.333 3.077 17.244-.828.915-1.331 2.122-1.331 3.445 0 2.857 2.344 5.173 5.236 5.173v1.724c0 4.176 2.542 7.942 6.444 9.549l7.518 3.094v5.56c0 1.484-.961 2.802-2.386 3.272l-2.191.865c-.392-.555-1.712-1.304-2.613-1.008l-10.622 3.498c-1.913.629-3.29 2.289-3.54 4.266l-2.346 18.538c-.391 3.087 2.045 5.814 5.195 5.814h57.949c3.15 0 5.586-2.727 5.195-5.814l-2.346-18.538z"/><path d="M61.421 32.467c0-4.785-3.911-8.663-8.736-8.663h-31.446c-4.824 0-8.735 3.878-8.735 8.663v3.465c-2.895 0-5.241 2.327-5.241 5.198 0 2.872 2.346 5.198 5.241 5.198v1.732c0 4.197 2.545 7.982 6.451 9.596l11.288 4.664c2.129.881 4.413 1.333 6.719 1.333 2.307 0 4.591-.453 6.72-1.333l11.288-4.665c3.907-1.614 6.451-5.398 6.451-9.596v-1.732c2.894 0 5.241-2.327 5.241-5.198 0-2.871-2.347-5.198-5.241-5.198v-3.465z"/><path d="M54.823 69.847c-1.475-.481-3.133.033-3.967 1.318-3.076 4.741-8.481 7.891-14.646 7.891-6.164 0-11.569-3.15-14.644-7.892-.834-1.285-2.493-1.798-3.967-1.317l-.561.183c3.166 7.301 10.558 12.421 19.172 12.421 8.615 0 16.008-5.121 19.174-12.421l-.561-.183z"/><path d="M66.976 74.932c.677.558.936 1.586 1.055 2.527l2.349 18.682c.391 3.111-2.049 5.858-5.204 5.858h-9.792v-9.983c0-2.525.922-4.964 2.596-6.864l8.997-10.22z"/><path d="M5.446 74.932c-.911.791-.936 1.586-1.055 2.527l-2.349 18.682c-.392 3.111 2.049 5.858 5.203 5.858h9.793v-9.983c0-2.525-.922-4.964-2.596-6.864l-8.996-10.22z"/></g></svg>