<svg width="110" height="107" viewBox="0 0 110 107" xmlns="http://www.w3.org/2000/svg"><title>conjoint</title><desc>Created with Sketch.</desc><g fill="none"><g stroke="#fff" stroke-width="4"><path d="M46.521 65.115v6.574m31.344 0v-6.574"/><path d="M41.291 76.072l-19.835 4.664c-3.197.752-5.456 3.601-5.456 6.883v13.845c0 1.953 1.584 3.536 3.538 3.536h84.923c1.955 0 3.539-1.584 3.539-3.536v-13.845c0-3.282-2.259-6.132-5.456-6.884l-19.829-4.662"/><path d="M39.981 54.157l.104 2.242c.144 3.102 1.7 5.978 4.24 7.841l7.322 5.371c1.84 1.349 4.076 2.078 6.375 2.078h7.084c2.299 0 4.536-.729 6.375-2.078l7.323-5.371c2.539-1.863 4.095-4.739 4.239-7.841l.104-2.233"/><path d="M28.804 93.678l-11.301-10.154c-.947 1.199-1.502 2.709-1.502 4.324v13.664c0 1.927 1.562 3.489 3.488 3.489h12.208v-4.833c-.001-2.475-1.052-4.835-2.893-6.489"/><path d="M106.055 83.085c1.038 1.097 1.945 2.404 1.945 4.083v14.205c0 2.003-1.562 3.627-3.488 3.627h-12.208v-5.024c0-2.573 1.052-5.026 2.893-6.746l10.859-10.144z"/><path d="M66.578 105h-9.156l1.902-14.026h5.7z"/><path d="M58.922 87.777l-1.5.95c0 1.153.917 2.685 2.048 2.685h5.06c1.131 0 2.048-1.533 2.048-2.685l-1.434-.95-3.145-2.062-3.078 2.062z"/><path d="M45.944 71.265l16.274 14.506s-4.558 2.279-10.182 6.871c-1.161.947-2.915.563-3.538-.792l-7.646-16.659 2.419-3.593c.602-.895 1.865-1.052 2.672-.333"/><path d="M78.492 71.265l-16.274 14.506s4.557 2.279 10.182 6.871c1.161.947 2.915.563 3.537-.792l7.646-16.659-2.419-3.593c-.602-.895-1.865-1.052-2.673-.333"/><path d="M86.914 41.009c.385-2.444 3.613-7.785 3.613-7.785s1.211-22.011-11.13-23.773m-2.791 13.922c6.013 3.282 6.971 13.25 7.124 16.345.031.633-.048.758.318 1.29"/><path d="M83.147 40.516c.427-.137 1.116-.384 1.599-.384 2.647 0 4.588 2.22 3.946 4.512l-2.216 7.917c-.263.938-1.206 1.597-2.289 1.597-.302 0-.593-.051-.86-.145"/><path d="M40.573 39.751c-.104-2.946.25-9.782 5.403-12.839 6.186-3.669 11.599-1.779 17.122-1.779 14.802 0 18.945-5.615 18.227-12.454-.372-3.538-5.746-10.908-19.442-10.674-5.527.094-15.907 1.779-21.283 4.596l2.614 1.798c-11.82 8.784-9.611 23.851-9.611 23.851 1.839 1.851 2.721 5.146 3.145 7.883"/><path d="M40.853 40.457c-.504-.208-1.065-.325-1.66-.325-2.607 0-4.519 2.22-3.887 4.512l2.183 7.917c.259.938 1.188 1.597 2.255 1.597.299 0 .624-.174.887-.268"/><path d="M72.247 101.494c-.964 0-1.744.785-1.744 1.754v1.753h15.697v-1.753c0-.969-.781-1.754-1.744-1.754h-12.208z"/></g><path d="M36.177 55.619h-10.796v-10.796c0-2.652-2.228-4.823-4.881-4.823s-4.881 2.171-4.881 4.823v10.796h-10.796c-2.652 0-4.823 2.228-4.823 4.881s2.171 4.881 4.823 4.881h10.796v10.796c0 2.652 2.228 4.823 4.881 4.823s4.881-2.171 4.881-4.823v-10.796h10.796c2.652 0 4.823-2.228 4.823-4.881s-2.171-4.881-4.823-4.881z" fill="#fff"/></g></svg>