<svg width="219" height="219" viewBox="0 0 219 219" xmlns="http://www.w3.org/2000/svg"><title>first-aid-kit</title><desc>Created with Sketch.</desc><defs><linearGradient x1="-112.665%" y1="-91.292%" x2="123.999%" y2="671.855%" id="a"><stop stop-color="#8DC6F5" offset="0%"/><stop stop-color="#4BA5EF" offset="100%"/></linearGradient></defs><g fill="url(#a)"><path d="M120.45 14.571h-21.9c-10.063 0-18.25 8.171-18.25 18.215 0 2.011 1.635 3.643 3.65 3.643 2.015 0 3.65-1.632 3.65-3.643 0-6.025 4.913-10.929 10.95-10.929h21.9c6.037 0 10.95 4.903 10.95 10.929 0 2.011 1.635 3.643 3.65 3.643 2.015 0 3.65-1.632 3.65-3.643 0-10.043-8.187-18.215-18.25-18.215zM200.75 43.715h-182.5c-10.063 0-18.25 8.171-18.25 18.215v21.857c0 4.94 2.96 8.918 7.3 10.353v106.219c0 10.043 8.187 18.215 18.25 18.215h167.9c10.063 0 18.25-8.171 18.25-18.215v-94.715c0-2.011-1.635-3.643-3.65-3.643-2.015 0-3.65 1.632-3.65 3.643v94.715c0 6.025-4.913 10.929-10.95 10.929h-167.901c-6.037 0-10.95-4.903-10.95-10.929v-109.287c0-2.011-1.635-3.643-3.65-3.643-2.252 0-3.65-1.395-3.65-3.643v-21.857c0-6.025 4.913-10.929 10.95-10.929h182.5c6.037 0 10.95 4.903 10.95 10.929v21.857c0 2.211-1.435 3.643-3.65 3.643h-18.25v-14.571c0-4.018-3.274-7.286-7.3-7.286h-7.3c-4.026 0-7.3 3.267-7.3 7.286v14.571h-116.8v-14.571c0-4.018-3.274-7.286-7.3-7.286h-7.3c-4.026 0-7.3 3.267-7.3 7.286v14.571h-3.497c-2.018 0-3.65 1.632-3.65 3.643s1.631 3.643 3.65 3.643h7.147c2.015 0 3.65-1.632 3.65-3.643v-18.215h7.3v18.215c0 2.011 1.635 3.643 3.65 3.643h124.1c2.015 0 3.65-1.632 3.65-3.643v-18.215h7.3v18.215c0 2.011 1.635 3.643 3.65 3.643h21.9c6.242 0 10.95-4.699 10.95-10.929v-21.857c0-10.043-8.186-18.214-18.25-18.214zM69.35 36.429c2.015 0 3.65-1.632 3.65-3.643 0-13.107 12.417-25.5 25.55-25.5h21.9c13.374 0 25.55 12.153 25.55 25.5 0 2.011 1.635 3.643 3.65 3.643 2.015 0 3.651-1.632 3.651-3.643 0-17.464-15.352-32.786-32.85-32.786h-21.9c-17.191 0-32.85 15.628-32.85 32.786 0 2.011 1.635 3.643 3.65 3.643zM98.55 189.43h21.9c2.015 0 3.65-1.632 3.65-3.643v-18.215h18.25c2.015 0 3.65-1.632 3.65-3.643v-21.857c0-2.011-1.635-3.643-3.65-3.643h-18.25v-18.215c0-2.011-1.635-3.643-3.65-3.643h-21.9c-2.015 0-3.65 1.632-3.65 3.643v18.215h-18.25c-2.015 0-3.65 1.632-3.65 3.643v21.857c0 2.011 1.635 3.643 3.65 3.643h18.25v18.215c0 2.011 1.635 3.643 3.65 3.643zm-18.25-29.143v-14.571h18.25c2.015 0 3.65-1.632 3.65-3.643v-18.215h14.6v18.214c0 2.011 1.635 3.643 3.65 3.643h18.25v14.571h-18.25c-2.015 0-3.65 1.632-3.65 3.643v18.215h-14.6v-18.214c0-2.011-1.635-3.643-3.65-3.643h-18.251zM171.55 102.001c-2.015 0-3.65 1.632-3.65 3.643v3.643c0 4.018 3.274 7.286 7.3 7.286h7.3c4.026 0 7.3-3.267 7.3-7.286v-3.643c0-2.011-1.635-3.643-3.65-3.643-2.015 0-3.65 1.632-3.65 3.643v3.643h-7.301v-3.643c0-2.011-1.635-3.643-3.65-3.643zM32.85 102.001c-2.015 0-3.65 1.632-3.65 3.643v3.643c0 4.018 3.274 7.286 7.3 7.286h7.3c4.026 0 7.3-3.267 7.3-7.286v-3.643c0-2.011-1.635-3.643-3.65-3.643-2.015 0-3.65 1.632-3.65 3.643v3.643h-7.301v-3.643c0-2.011-1.635-3.643-3.65-3.643z"/></g></svg>