<svg width="83" height="69" viewBox="0 0 83 69" xmlns="http://www.w3.org/2000/svg"><title>logo tandem copy</title><desc>Created with Sketch.</desc><g fill="none"><g><path d="M38.056 41.861l.128-.326s1.935-5.086 6.214-8.554c0 0-2.432 4.37-6.214 8.554" id="Path-4" fill="#39B54A"/><path d="M36.787 40.593l.128-.326s1.935-5.086 6.214-8.554c0 0-2.432 4.37-6.214 8.554" id="Path-4"/><path d="M47.366 52.461c18.626-8.359 25.19-15.427 29.968-21.739 4.779-6.312 6.352-13.44 4.126-18.442-2.226-5.001-10.602-9.743-10.602-9.743s8.309 4.772 9.848 12.421c1.539 7.649-6.488 16.186-6.488 16.186s-5.552 6.351-15.124 12.162c-3.68 2.471-4.898 2.802-15.738 7.614 0 0-8.683 4.188-13.238 8.588 0 0-.901-1.83-1.807-2.94-.907-1.11-2.536-2.746-3.297-3.426-.761-.68-47.086-26.441-6.502-50.376 0 0-20.568 10.816-18.341 24.963 0 0 0 9.586 19.581 24.987 0 0 8.674 5.35 8.788 13.884.265 2.292.525 1.869.525 1.869s-.322-7.649 18.304-16.008z" fill="#39B54A"/><path d="M47.982 26.978s-2.012 3.601-6.105 6.891c0 0-1.746 1.279-2.031 4.528 0 0-.527 3.615-.743 3.803 5.427-4.271 8.88-3.545 8.88-15.222zM30.444 59.62s2.907-13.283 8.88-17.759" stroke="#39B54A" stroke-width="3"/><path d="M33.09 37.777l-.052-.346s-.868-5.372 1.105-10.515c0 0 .079 5-1.105 10.515" fill="#39B54A"/><path d="M34.017 48.204s.853-4.668-1.418-10.447c-2.271-5.779-3.223-7.757-.461-12.923 0 0 2.677-3.916 5.918-5.806 0 0-1.297 3.634-1.302 5.884-.006 2.25-.232 5.452-2.532 8.504-1.904 2.443-1.623 4.017-1.623 4.341" stroke="#39B54A" stroke-width="3"/></g><g transform="translate(12.685 0)" fill="#4BA5EF"><path d="M32.537 16.895s25.943 6.223-2.093 28.771c0 0 26.997-.419 29.176-31.713 0 0-5.512 11.51-10.74 7.599-3.934-2.515-12.73-5.053-14.605-4.921-1.984.06-1.737.263-1.737.263z"/><ellipse cx="48.204" cy="10.148" rx="5.074" ry="6.343"/><path d="M2.668 8.88s-11.835 28.751 14.349 35.519c0 0-21.406-22.92 9.622-27.895 0 0-4.72-2.641-20.454 1.658 0 0-5.095 2.415-3.517-9.281"/><ellipse cx="12.685" cy="6.343" rx="5.074" ry="6.343"/></g></g></svg>