<svg width="83" height="69" viewBox="0 0 83 69" xmlns="http://www.w3.org/2000/svg" xmlns:xlink="http://www.w3.org/1999/xlink"><title>logo tandem</title><desc>Created with Sketch.</desc><defs><path d="M38.056 39.324l.128-.326s1.935-5.086 6.214-8.554c0 0-2.432 4.37-6.214 8.554" id="a"/><filter x="-50%" y="-50%" width="200%" height="200%" filterUnits="objectBoundingBox" id="b"><feGaussianBlur stdDeviation="1.5" in="SourceAlpha" result="shadowBlurInner1"/><feOffset dy="1" in="shadowBlurInner1" result="shadowOffsetInner1"/><feComposite in="shadowOffsetInner1" in2="SourceAlpha" operator="arithmetic" k2="-1" k3="1" result="shadowInnerInner1"/><feColorMatrix values="0 0 0 0 0 0 0 0 0 0 0 0 0 0 0 0 0 0 0.20032269 0" in="shadowInnerInner1"/></filter><path d="M36.787 38.056l.128-.326s1.935-5.086 6.214-8.554c0 0-2.432 4.37-6.214 8.554" id="d"/><filter x="-50%" y="-50%" width="200%" height="200%" filterUnits="objectBoundingBox" id="c"><feGaussianBlur stdDeviation="1.5" in="SourceAlpha" result="shadowBlurInner1"/><feOffset dy="1" in="shadowBlurInner1" result="shadowOffsetInner1"/><feComposite in="shadowOffsetInner1" in2="SourceAlpha" operator="arithmetic" k2="-1" k3="1" result="shadowInnerInner1"/><feColorMatrix values="0 0 0 0 0 0 0 0 0 0 0 0 0 0 0 0 0 0 0.20032269 0" in="shadowInnerInner1"/></filter><path d="M47.366 49.924c18.626-8.359 25.19-15.427 29.968-21.739 4.779-6.312 6.352-13.44 4.126-18.442-2.226-5.001-10.602-9.743-10.602-9.743s8.309 4.772 9.848 12.421c1.539 7.649-6.488 16.186-6.488 16.186s-5.552 6.351-15.124 12.162c-3.68 2.471-4.898 2.802-15.738 7.614 0 0-8.683 4.188-13.238 8.588 0 0-.901-1.83-1.807-2.94-.907-1.11-2.536-2.746-3.297-3.426-.761-.68-47.086-26.441-6.502-50.376 0 0-20.568 10.816-18.341 24.963 0 0 0 9.586 19.581 24.987 0 0 8.674 5.35 8.788 13.884.265 2.292.525 1.869.525 1.869s-.322-7.649 18.304-16.008z" id="e"/><filter x="-50%" y="-50%" width="200%" height="200%" filterUnits="objectBoundingBox" id="f"><feGaussianBlur stdDeviation="1.5" in="SourceAlpha" result="shadowBlurInner1"/><feOffset dy="1" in="shadowBlurInner1" result="shadowOffsetInner1"/><feComposite in="shadowOffsetInner1" in2="SourceAlpha" operator="arithmetic" k2="-1" k3="1" result="shadowInnerInner1"/><feColorMatrix values="0 0 0 0 0 0 0 0 0 0 0 0 0 0 0 0 0 0 0.20032269 0" in="shadowInnerInner1"/></filter><path d="M46.935 22.833s-2.012 3.601-6.105 6.891c0 0-1.746 1.279-2.031 4.528 0 0-.527 3.615-.743 3.803 5.427-4.271 8.88-3.545 8.88-15.222z" id="h"/><filter x="-50%" y="-50%" width="200%" height="200%" filterUnits="objectBoundingBox" id="g"><feGaussianBlur stdDeviation="1.5" in="SourceAlpha" result="shadowBlurInner1"/><feOffset dy="1" in="shadowBlurInner1" result="shadowOffsetInner1"/><feComposite in="shadowOffsetInner1" in2="SourceAlpha" operator="arithmetic" k2="-1" k3="1" result="shadowInnerInner1"/><feColorMatrix values="0 0 0 0 0 0 0 0 0 0 0 0 0 0 0 0 0 0 0.20032269 0" in="shadowInnerInner1"/></filter><path d="M30.444 57.083s2.907-13.283 8.88-17.759" id="j"/><filter x="-50%" y="-50%" width="200%" height="200%" filterUnits="objectBoundingBox" id="i"><feGaussianBlur stdDeviation="1.5" in="SourceAlpha" result="shadowBlurInner1"/><feOffset dy="1" in="shadowBlurInner1" result="shadowOffsetInner1"/><feComposite in="shadowOffsetInner1" in2="SourceAlpha" operator="arithmetic" k2="-1" k3="1" result="shadowInnerInner1"/><feColorMatrix values="0 0 0 0 0 0 0 0 0 0 0 0 0 0 0 0 0 0 0.20032269 0" in="shadowInnerInner1"/></filter><path d="M30.444 34.25l.128-.326s1.935-5.086 6.214-8.554c0 0-2.432 4.37-6.214 8.554" id="k"/><filter x="-50%" y="-50%" width="200%" height="200%" filterUnits="objectBoundingBox" id="l"><feGaussianBlur stdDeviation="1.5" in="SourceAlpha" result="shadowBlurInner1"/><feOffset dy="1" in="shadowBlurInner1" result="shadowOffsetInner1"/><feComposite in="shadowOffsetInner1" in2="SourceAlpha" operator="arithmetic" k2="-1" k3="1" result="shadowInnerInner1"/><feColorMatrix values="0 0 0 0 0 0 0 0 0 0 0 0 0 0 0 0 0 0 0.20032269 0" in="shadowInnerInner1"/></filter><path d="M34.017 45.667s.853-4.668-1.418-10.447c-2.271-5.779-3.223-7.757-.461-12.923 0 0 2.677-3.916 5.918-5.806 0 0-1.297 3.634-1.302 5.884-.006 2.25-.232 5.452-2.532 8.504-1.904 2.443-1.623 4.017-1.623 4.341" id="n"/><filter x="-50%" y="-50%" width="200%" height="200%" filterUnits="objectBoundingBox" id="m"><feGaussianBlur stdDeviation="1.5" in="SourceAlpha" result="shadowBlurInner1"/><feOffset dy="1" in="shadowBlurInner1" result="shadowOffsetInner1"/><feComposite in="shadowOffsetInner1" in2="SourceAlpha" operator="arithmetic" k2="-1" k3="1" result="shadowInnerInner1"/><feColorMatrix values="0 0 0 0 0 0 0 0 0 0 0 0 0 0 0 0 0 0 0.20032269 0" in="shadowInnerInner1"/></filter><path d="M32.537 16.895s25.943 6.223-2.093 28.771c0 0 26.997-.419 29.176-31.713 0 0-5.512 11.51-10.74 7.599-3.934-2.515-12.73-5.053-14.605-4.921-1.984.06-1.737.263-1.737.263z" id="o"/><filter x="-50%" y="-50%" width="200%" height="200%" filterUnits="objectBoundingBox" id="p"><feGaussianBlur stdDeviation="1.5" in="SourceAlpha" result="shadowBlurInner1"/><feOffset dy="1" in="shadowBlurInner1" result="shadowOffsetInner1"/><feComposite in="shadowOffsetInner1" in2="SourceAlpha" operator="arithmetic" k2="-1" k3="1" result="shadowInnerInner1"/><feColorMatrix values="0 0 0 0 0 0 0 0 0 0 0 0 0 0 0 0 0 0 0.20032269 0" in="shadowInnerInner1"/></filter><ellipse id="q" cx="48.204" cy="10.148" rx="5.074" ry="6.343"/><filter x="-50%" y="-50%" width="200%" height="200%" filterUnits="objectBoundingBox" id="r"><feGaussianBlur stdDeviation="1.5" in="SourceAlpha" result="shadowBlurInner1"/><feOffset dy="1" in="shadowBlurInner1" result="shadowOffsetInner1"/><feComposite in="shadowOffsetInner1" in2="SourceAlpha" operator="arithmetic" k2="-1" k3="1" result="shadowInnerInner1"/><feColorMatrix values="0 0 0 0 0 0 0 0 0 0 0 0 0 0 0 0 0 0 0.20032269 0" in="shadowInnerInner1"/></filter><path d="M2.668 8.88s-11.835 28.751 14.349 35.519c0 0-21.406-22.92 9.622-27.895 0 0-4.72-2.641-20.454 1.658 0 0-5.095 2.415-3.517-9.281" id="s"/><filter x="-50%" y="-50%" width="200%" height="200%" filterUnits="objectBoundingBox" id="t"><feGaussianBlur stdDeviation="1.5" in="SourceAlpha" result="shadowBlurInner1"/><feOffset dy="1" in="shadowBlurInner1" result="shadowOffsetInner1"/><feComposite in="shadowOffsetInner1" in2="SourceAlpha" operator="arithmetic" k2="-1" k3="1" result="shadowInnerInner1"/><feColorMatrix values="0 0 0 0 0 0 0 0 0 0 0 0 0 0 0 0 0 0 0.20032269 0" in="shadowInnerInner1"/></filter><ellipse id="u" cx="12.685" cy="6.343" rx="5.074" ry="6.343"/><filter x="-50%" y="-50%" width="200%" height="200%" filterUnits="objectBoundingBox" id="v"><feGaussianBlur stdDeviation="1.5" in="SourceAlpha" result="shadowBlurInner1"/><feOffset dy="1" in="shadowBlurInner1" result="shadowOffsetInner1"/><feComposite in="shadowOffsetInner1" in2="SourceAlpha" operator="arithmetic" k2="-1" k3="1" result="shadowInnerInner1"/><feColorMatrix values="0 0 0 0 0 0 0 0 0 0 0 0 0 0 0 0 0 0 0.20032269 0" in="shadowInnerInner1"/></filter></defs><g fill="none"><g opacity=".8"><g id="Path-4" transform="translate(.273 2.787)"><use fill="#39B54A" xlink:href="#a"/><use fill="#000" filter="url(#b)" xlink:href="#a"/></g><use filter="url(#c)" xlink:href="#d" id="Path-4" fill="#000" transform="translate(.273 2.787)"/><g transform="translate(.273 2.787)"><use fill="#39B54A" xlink:href="#e"/><use fill="#000" filter="url(#f)" xlink:href="#e"/></g><g id="Path" transform="translate(.273 2.787)"><use fill="#000" filter="url(#g)" xlink:href="#h"/><use stroke="#39B54A" stroke-width="3" xlink:href="#h"/></g><g transform="translate(.273 2.787)"><use fill="#000" filter="url(#i)" xlink:href="#j"/><use stroke="#39B54A" stroke-width="3" xlink:href="#j"/></g><g transform="matrix(.866 -.5 .5 .866 .273 2.787)"><use fill="#39B54A" xlink:href="#k"/><use fill="#000" filter="url(#l)" xlink:href="#k"/></g><g transform="translate(.273 2.787)"><use fill="#000" filter="url(#m)" xlink:href="#n"/><use stroke="#39B54A" stroke-width="3" xlink:href="#n"/></g></g><g><g transform="translate(12.958 .25)"><use fill-opacity=".8" fill="#4BA5EF" xlink:href="#o"/><use fill="#000" filter="url(#p)" xlink:href="#o"/></g><g transform="translate(12.958 .25)"><use fill-opacity=".8" fill="#4BA5EF" xlink:href="#q"/><use fill="#000" filter="url(#r)" xlink:href="#q"/></g><g transform="translate(12.958 .25)"><use fill-opacity=".8" fill="#4BA5EF" xlink:href="#s"/><use fill="#000" filter="url(#t)" xlink:href="#s"/></g><g transform="translate(12.958 .25)"><use fill-opacity=".8" fill="#4BA5EF" xlink:href="#u"/><use fill="#000" filter="url(#v)" xlink:href="#u"/></g></g></g></svg>