<svg width="178" height="224" viewBox="0 0 178 224" xmlns="http://www.w3.org/2000/svg"><title>medical-result</title><desc>Created with Sketch.</desc><defs><linearGradient x1="0%" y1="0%" y2="100%" id="a"><stop stop-color="#8DC6F5" offset="0%"/><stop stop-color="#4BA5EF" offset="100%"/></linearGradient></defs><g fill="url(#a)"><path d="M155.538 0h-151.19c-2.174 0-3.937 1.764-3.937 3.941v29.696c0 2.176 1.763 3.941 3.937 3.941s3.937-1.764 3.937-3.941v-25.756h143.315v189.674h-143.316v-149.207c0-2.176-1.763-3.941-3.937-3.941s-3.937 1.764-3.937 3.941v153.148c0 2.176 1.763 3.941 3.937 3.941h14.176v14.186c0 2.176 1.763 3.941 3.937 3.941h10.894c2.174 0 3.937-1.764 3.937-3.941 0-2.176-1.763-3.941-3.937-3.941h-6.957v-10.245h129.14c2.174 0 3.937-1.764 3.937-3.941v-197.555c0-2.176-1.763-3.941-3.938-3.941zM173.651 18.127h-5.905c-2.174 0-3.937 1.764-3.937 3.941 0 2.176 1.763 3.941 3.937 3.941h1.968v189.674h-119.56c-2.174 0-3.937 1.764-3.937 3.941 0 2.176 1.763 3.941 3.937 3.941h123.498c2.174 0 3.937-1.764 3.937-3.941v-197.556c0-2.176-1.763-3.941-3.938-3.941zM63.505 29.961h-7.607v-7.613c0-2.176-1.763-3.941-3.937-3.941h-18.211c-2.174 0-3.937 1.764-3.937 3.941v7.613h-7.607c-2.174 0-3.937 1.764-3.937 3.941v18.227c0 2.176 1.763 3.941 3.937 3.941h7.607v7.613c0 2.176 1.763 3.941 3.937 3.941h18.211c2.174 0 3.937-1.764 3.937-3.941v-7.613h7.607c2.174 0 3.937-1.764 3.937-3.941v-18.227c0-2.176-1.763-3.941-3.937-3.941zm-3.937 18.227h-7.607c-2.174 0-3.937 1.764-3.937 3.941v7.613h-10.337v-7.613c0-2.176-1.763-3.941-3.937-3.941h-7.607v-10.345h7.607c2.174 0 3.937-1.764 3.937-3.941v-7.613h10.337v7.613c0 2.176 1.763 3.941 3.937 3.941h7.607v10.345zM139.789 78.812h-119.692c-2.174 0-3.937 1.764-3.937 3.941 0 2.176 1.763 3.941 3.937 3.941h119.692c2.174 0 3.937-1.764 3.937-3.941 0-2.177-1.763-3.941-3.937-3.941zM129.817 110.337h-99.747c-2.174 0-3.937 1.764-3.937 3.941 0 2.176 1.763 3.941 3.937 3.941h99.746c2.174 0 3.937-1.764 3.937-3.941 0-2.176-1.762-3.941-3.937-3.941zM139.79 23.644h-36.221c-2.174 0-3.937 1.764-3.937 3.941 0 2.176 1.763 3.941 3.937 3.941h36.221c2.174 0 3.937-1.764 3.937-3.941 0-2.176-1.763-3.941-3.937-3.941zM139.79 40.457h-36.221c-2.174 0-3.937 1.764-3.937 3.941 0 2.176 1.763 3.941 3.937 3.941h36.221c2.174 0 3.937-1.764 3.937-3.941 0-2.176-1.763-3.941-3.937-3.941zM129.817 128.551h-99.747c-2.174 0-3.937 1.764-3.937 3.941 0 2.176 1.763 3.941 3.937 3.941h99.746c2.175 0 3.938-1.764 3.938-3.941 0-2.176-1.763-3.941-3.937-3.941zM76.795 146.765h-46.725c-2.174 0-3.937 1.764-3.937 3.941 0 2.176 1.763 3.941 3.937 3.941h46.725c2.174 0 3.937-1.764 3.937-3.941 0-2.177-1.763-3.941-3.937-3.941z"/></g></svg>