<svg width="18" height="12" viewBox="0 0 18 12" xmlns="http://www.w3.org/2000/svg"><title>menu</title><desc>Created with Sketch.</desc><g fill="none"><path d="M-3-6h24v24h-24z"/><path d="M0 1c0-.552.45-1 1.007-1h11.986c.556 0 1.007.444 1.007 1 0 .552-.45 1-1.007 1h-11.986c-.556 0-1.007-.444-1.007-1zm0 5c0-.552.445-1 .993-1h16.013c.549 0 .993.444.993 1 0 .552-.445 1-.993 1h-16.013c-.549 0-.993-.444-.993-1zm0 5c0-.552.456-1 .995-1h8.009c.55 0 .995.444.995 1 0 .552-.456 1-.995 1h-8.009c-.55 0-.995-.444-.995-1z" fill="#4BA5EF"/></g></svg>