<svg width="88" height="114" viewBox="0 0 88 114" xmlns="http://www.w3.org/2000/svg"><title>de 12 à 15 ans</title><desc>Created with Sketch.</desc><defs><linearGradient x1="18.412%" y1="0%" x2="87.765%" y2="108.908%" id="a"><stop stop-color="#8DC6F5" offset="0%"/><stop stop-color="#4BA5EF" offset="100%"/></linearGradient></defs><g stroke="url(#a)" stroke-width="3" fill="none"><path d="M74.473 88.045c.946-.497 1.74-.951 2.373-1.33 1.116-.669 1.798-1.836 1.805-3.131.179-34.28 4.52-81.585-34.625-81.585-39.144 0-34.804 47.306-34.625 81.585.007 1.295.689 2.462 1.805 3.131.657.394 1.488.867 2.483 1.387"/><path d="M57.051 78.878c-.467-.677-.724-1.436-.724-2.225v-5.975m-24.906 0v5.98c0 .788-.255 1.545-.72 2.221m-6.136 4.12l-18.001 7.372c-2.764 1.131-4.564 3.786-4.564 6.729v9.72c0 2.683 2.214 4.86 4.945 4.86h74.165c2.73 0 4.944-2.175 4.944-4.86v-9.72c.001-2.943-1.8-5.598-4.563-6.729l-18.05-7.392"/><path d="M13.657 99.886l-9.6-7.683c-1.286 1.324-2.057 3.114-2.057 5.038v9.625c0 2.657 2.142 4.812 4.783 4.812h9.567v-6.156c-.001-2.193-.992-4.267-2.693-5.637"/><path d="M86.053 97.219c0-1.913-.759-3.693-2.027-5.016l-9.631 7.665c-1.702 1.372-2.693 3.45-2.693 5.646v6.165h9.567c2.642 0 4.784-2.158 4.784-4.82v-9.64z"/><path d="M44.26 89.3l-1.514.932-.769 14.947c0 1.325 1.148 2.401 2.563 2.401 1.415 0 2.563-1.075 2.563-2.401l-.642-14.051 5.698 4.733c.873.725 2.153.54 2.802-.404l8.542-12.416-2.753-4.287c-.62-.966-1.894-1.193-2.789-.496l-13.934 10.849.233.194zm-.233-.194l-13.933-10.849c-.895-.697-2.169-.47-2.789.496l-2.753 4.287 8.543 12.416c.649.944 1.929 1.128 2.801.404l8.131-6.754z"/><path d="M55.515 23.526c-12.182 12.356-36.089 2.471-36.089 22.242l1.514 14.564c.291 3.258 2.154 6.157 4.972 7.746l13.872 7.817c2.207 1.245 4.892 1.245 7.1 0l13.872-7.817c2.818-1.589 4.681-4.489 4.973-7.746l1.747-17.297c.124-1.229.15-2.466.109-3.7-.913-6.291-9.633-10.867-12.07-15.809"/><path d="M63.161 106.554h-9.567c-1.32 0-2.392 1.147-2.392 2.563v2.563h14.351v-2.563c0-1.415-1.071-2.563-2.392-2.563"/></g></svg>